<!DOCTYPE svg PUBLIC "-//W3C//DTD SVG 1.1//EN" "http://www.w3.org/Graphics/SVG/1.1/DTD/svg11.dtd">
<!-- Uploaded to: SVG Repo, www.svgrepo.com, Transformed by: SVG Repo Mixer Tools -->
<svg fill="#000000" version="1.1" id="Capa_1" xmlns="http://www.w3.org/2000/svg" xmlns:xlink="http://www.w3.org/1999/xlink" width="202px" height="202px" viewBox="-143.96 -143.96 639.05 639.05" xml:space="preserve" stroke="#000000" stroke-width="0.00351128">
<g id="SVGRepo_bgCarrier" stroke-width="0">
<path transform="translate(-143.96, -143.96), scale(19.9703125)" d="M16,29.13151828866256C18.210454410816535,28.86391324443967,19.97545634018161,27.25903712623127,21.659298150849185,25.802191932451386C23.121970507862727,24.536700613795354,23.939301253405077,22.800501448953305,25.10304358860346,21.255644666325104C26.443303620762194,19.476462334857413,28.49237505800724,18.15830214580435,29.04330025240779,16C29.640202103170456,13.661579905167672,29.820190582077604,10.760190661779879,28.24990501045584,8.92751404466598C26.64243452778665,7.051439004859006,23.68846328525022,7.307049329185948,21.2507849729767,6.905373647185188C19.493878516703326,6.615874169144148,17.73525684905052,7.3082662909407885,16,6.90899957343936C13.552733818314513,6.34590602579051,11.607425380940652,3.649670305609745,9.140440370887521,4.118894204828855C6.77828390400384,4.5681795727739685,4.921284875922963,6.882356828568728,4.155845022218957,9.161773935254462C3.4098795150682286,11.383198035095491,4.653133158228609,13.710106510737413,5.150704637561974,15.999999999999998C5.551249600608116,17.843363900730672,6.11880657717229,19.553230042681474,6.796346702553105,21.31373170880894C7.593168144537969,23.3841706742237,7.799298575065274,25.839206831128042,9.490125803669027,27.275432858926845C11.23969063470843,28.761551904771164,13.721094443107255,29.40741025881488,16,29.13151828866256" fill="#7ed0ec" strokewidth="0"/>
</g>
<g id="SVGRepo_tracerCarrier" stroke-linecap="round" stroke-linejoin="round" stroke="#CCCCCC" stroke-width="1.404512"/>
<g id="SVGRepo_iconCarrier"> <g> <path d="M72.326,147.33c4.284-26.928,37.944-55.692,64.26-56.304c1.836,0,3.672-0.612,4.896-1.836 c1.224-0.612,2.448-1.224,3.06-3.06c9.18-17.136,4.284-30.6-11.016-41.616c-17.748-12.852-45.9,0-59.976,11.628 C38.054,85.518,1.946,136.313,3.782,184.662c-6.12,32.437-4.896,67.32,4.284,96.084c6.12,18.36,23.868,27.54,42.228,28.764 c18.36,1.225,56.304,6.732,72.828-4.283c16.524-11.017,17.748-32.437,19.584-50.796c1.836-20.196,7.344-58.141-9.792-74.053 C115.778,165.078,66.818,181.602,72.326,147.33z"/> <path d="M274.286,147.33c4.284-26.928,37.943-55.692,64.26-56.304c1.836,0,3.672-0.612,4.896-1.836 c1.225-0.612,2.448-1.224,3.061-3.06c9.18-17.136,4.284-30.6-11.016-41.616c-17.748-12.852-45.9,0-59.977,11.628 c-35.496,29.376-71.604,80.172-69.768,128.52c-6.12,32.437-4.896,67.32,4.283,96.084c6.12,18.36,23.868,27.54,42.229,28.764 c18.36,1.225,56.304,6.732,72.828-4.283c16.523-11.017,17.748-32.437,19.584-50.796c1.836-20.196,7.344-58.141-9.792-74.053 C317.738,165.078,268.166,181.602,274.286,147.33z"/> </g> </g>
</svg>